# xmcd
#
# Track frame offsets:
#	150
#	23269
#	47350
#	60583
#	80137
#	95131
#	115427
#	140525
#	162519
#	183598
#	195669
#	207518
#	230687
#
# Disc length: 3279 seconds
#
# Revision: 2
# Processed by: cddbd v1.5.2PL0 Copyright (c) Steve Scherf et al.
# Submitted via: EasyCDDAExtractor 16.0.6.1
#
DISCID=b80ccd0d
DTITLE=Rick Estrin And The Nightcats - Groovin' In Greaseland
DYEAR=2017
DGENRE=Blues
TTITLE0=The Blues Ain't Going Nowhere
TTITLE1=Looking For A Woman
TTITLE2=Dissed Again
TTITLE3=Tender Hearted
TTITLE4=MWAH!
TTITLE5=I Ain't All That
TTITLE6=Another Lonesome Day
TTITLE7=Hands Of Time
TTITLE8=Cool Slaw
TTITLE9=Big Money
TTITLE10=Hot In Here
TTITLE11=Living Hand To Mouth
TTITLE12=So Long (for Jay P.)
EXTD=
EXTT0=
EXTT1=
EXTT2=
EXTT3=
EXTT4=
EXTT5=
EXTT6=
EXTT7=
EXTT8=
EXTT9=
EXTT10=
EXTT11=
EXTT12=
PLAYORDER=
